%TF.GenerationSoftware,KiCad,Pcbnew,(5.1.9)-1*%
%TF.CreationDate,2021-06-29T18:38:44+03:00*%
%TF.ProjectId,driver,64726976-6572-42e6-9b69-6361645f7063,rev?*%
%TF.SameCoordinates,Original*%
%TF.FileFunction,Soldermask,Top*%
%TF.FilePolarity,Negative*%
%FSLAX46Y46*%
G04 Gerber Fmt 4.6, Leading zero omitted, Abs format (unit mm)*
G04 Created by KiCad (PCBNEW (5.1.9)-1) date 2021-06-29 18:38:44*
%MOMM*%
%LPD*%
G01*
G04 APERTURE LIST*
%ADD10R,1.700000X1.700000*%
%ADD11O,1.700000X1.700000*%
%ADD12R,1.220000X0.650000*%
%ADD13R,0.700000X1.000000*%
G04 APERTURE END LIST*
%TO.C,C1*%
G36*
G01*
X165796199Y-89313800D02*
X167096201Y-89313800D01*
G75*
G02*
X167346200Y-89563799I0J-249999D01*
G01*
X167346200Y-90213801D01*
G75*
G02*
X167096201Y-90463800I-249999J0D01*
G01*
X165796199Y-90463800D01*
G75*
G02*
X165546200Y-90213801I0J249999D01*
G01*
X165546200Y-89563799D01*
G75*
G02*
X165796199Y-89313800I249999J0D01*
G01*
G37*
G36*
G01*
X165796199Y-92263800D02*
X167096201Y-92263800D01*
G75*
G02*
X167346200Y-92513799I0J-249999D01*
G01*
X167346200Y-93163801D01*
G75*
G02*
X167096201Y-93413800I-249999J0D01*
G01*
X165796199Y-93413800D01*
G75*
G02*
X165546200Y-93163801I0J249999D01*
G01*
X165546200Y-92513799D01*
G75*
G02*
X165796199Y-92263800I249999J0D01*
G01*
G37*
%TD*%
%TO.C,C2*%
G36*
G01*
X151240400Y-98632600D02*
X152340400Y-98632600D01*
G75*
G02*
X152590400Y-98882600I0J-250000D01*
G01*
X152590400Y-101157600D01*
G75*
G02*
X152340400Y-101407600I-250000J0D01*
G01*
X151240400Y-101407600D01*
G75*
G02*
X150990400Y-101157600I0J250000D01*
G01*
X150990400Y-98882600D01*
G75*
G02*
X151240400Y-98632600I250000J0D01*
G01*
G37*
G36*
G01*
X151240400Y-102757600D02*
X152340400Y-102757600D01*
G75*
G02*
X152590400Y-103007600I0J-250000D01*
G01*
X152590400Y-105282600D01*
G75*
G02*
X152340400Y-105532600I-250000J0D01*
G01*
X151240400Y-105532600D01*
G75*
G02*
X150990400Y-105282600I0J250000D01*
G01*
X150990400Y-103007600D01*
G75*
G02*
X151240400Y-102757600I250000J0D01*
G01*
G37*
%TD*%
%TO.C,C3*%
G36*
G01*
X136076600Y-93283400D02*
X137176600Y-93283400D01*
G75*
G02*
X137426600Y-93533400I0J-250000D01*
G01*
X137426600Y-95808400D01*
G75*
G02*
X137176600Y-96058400I-250000J0D01*
G01*
X136076600Y-96058400D01*
G75*
G02*
X135826600Y-95808400I0J250000D01*
G01*
X135826600Y-93533400D01*
G75*
G02*
X136076600Y-93283400I250000J0D01*
G01*
G37*
G36*
G01*
X136076600Y-89158400D02*
X137176600Y-89158400D01*
G75*
G02*
X137426600Y-89408400I0J-250000D01*
G01*
X137426600Y-91683400D01*
G75*
G02*
X137176600Y-91933400I-250000J0D01*
G01*
X136076600Y-91933400D01*
G75*
G02*
X135826600Y-91683400I0J250000D01*
G01*
X135826600Y-89408400D01*
G75*
G02*
X136076600Y-89158400I250000J0D01*
G01*
G37*
%TD*%
%TO.C,C4*%
G36*
G01*
X142936199Y-92187600D02*
X144236201Y-92187600D01*
G75*
G02*
X144486200Y-92437599I0J-249999D01*
G01*
X144486200Y-93087601D01*
G75*
G02*
X144236201Y-93337600I-249999J0D01*
G01*
X142936199Y-93337600D01*
G75*
G02*
X142686200Y-93087601I0J249999D01*
G01*
X142686200Y-92437599D01*
G75*
G02*
X142936199Y-92187600I249999J0D01*
G01*
G37*
G36*
G01*
X142936199Y-89237600D02*
X144236201Y-89237600D01*
G75*
G02*
X144486200Y-89487599I0J-249999D01*
G01*
X144486200Y-90137601D01*
G75*
G02*
X144236201Y-90387600I-249999J0D01*
G01*
X142936199Y-90387600D01*
G75*
G02*
X142686200Y-90137601I0J249999D01*
G01*
X142686200Y-89487599D01*
G75*
G02*
X142936199Y-89237600I249999J0D01*
G01*
G37*
%TD*%
D10*
%TO.C,JLazer1*%
X171526200Y-90093800D03*
D11*
X171526200Y-92633800D03*
X171526200Y-95173800D03*
%TD*%
D10*
%TO.C,JPower1*%
X125806200Y-92633800D03*
D11*
X125806200Y-90093800D03*
%TD*%
D10*
%TO.C,JReg1*%
X134340600Y-103454200D03*
D11*
X134340600Y-105994200D03*
%TD*%
%TO.C,JSynchro1*%
X125679200Y-103403400D03*
D10*
X125679200Y-100863400D03*
%TD*%
D12*
%TO.C,Q1*%
X148092800Y-91760000D03*
X148092800Y-92710000D03*
X148092800Y-93660000D03*
X150712800Y-93660000D03*
X150712800Y-92710000D03*
X150712800Y-91760000D03*
%TD*%
D13*
%TO.C,Q2*%
X144388800Y-105567000D03*
X145338800Y-105567000D03*
X146288800Y-105567000D03*
X146288800Y-102967000D03*
X144388800Y-102967000D03*
X145338800Y-102967000D03*
%TD*%
%TO.C,R1*%
G36*
G01*
X130261199Y-89146300D02*
X131511201Y-89146300D01*
G75*
G02*
X131761200Y-89396299I0J-249999D01*
G01*
X131761200Y-90021301D01*
G75*
G02*
X131511201Y-90271300I-249999J0D01*
G01*
X130261199Y-90271300D01*
G75*
G02*
X130011200Y-90021301I0J249999D01*
G01*
X130011200Y-89396299D01*
G75*
G02*
X130261199Y-89146300I249999J0D01*
G01*
G37*
G36*
G01*
X130261199Y-92071300D02*
X131511201Y-92071300D01*
G75*
G02*
X131761200Y-92321299I0J-249999D01*
G01*
X131761200Y-92946301D01*
G75*
G02*
X131511201Y-93196300I-249999J0D01*
G01*
X130261199Y-93196300D01*
G75*
G02*
X130011200Y-92946301I0J249999D01*
G01*
X130011200Y-92321299D01*
G75*
G02*
X130261199Y-92071300I249999J0D01*
G01*
G37*
%TD*%
%TO.C,R2*%
G36*
G01*
X140404200Y-97749199D02*
X140404200Y-98999201D01*
G75*
G02*
X140154201Y-99249200I-249999J0D01*
G01*
X139529199Y-99249200D01*
G75*
G02*
X139279200Y-98999201I0J249999D01*
G01*
X139279200Y-97749199D01*
G75*
G02*
X139529199Y-97499200I249999J0D01*
G01*
X140154201Y-97499200D01*
G75*
G02*
X140404200Y-97749199I0J-249999D01*
G01*
G37*
G36*
G01*
X137479200Y-97749199D02*
X137479200Y-98999201D01*
G75*
G02*
X137229201Y-99249200I-249999J0D01*
G01*
X136604199Y-99249200D01*
G75*
G02*
X136354200Y-98999201I0J249999D01*
G01*
X136354200Y-97749199D01*
G75*
G02*
X136604199Y-97499200I249999J0D01*
G01*
X137229201Y-97499200D01*
G75*
G02*
X137479200Y-97749199I0J-249999D01*
G01*
G37*
%TD*%
%TO.C,R3*%
G36*
G01*
X144160401Y-99180000D02*
X142910399Y-99180000D01*
G75*
G02*
X142660400Y-98930001I0J249999D01*
G01*
X142660400Y-98304999D01*
G75*
G02*
X142910399Y-98055000I249999J0D01*
G01*
X144160401Y-98055000D01*
G75*
G02*
X144410400Y-98304999I0J-249999D01*
G01*
X144410400Y-98930001D01*
G75*
G02*
X144160401Y-99180000I-249999J0D01*
G01*
G37*
G36*
G01*
X144160401Y-96255000D02*
X142910399Y-96255000D01*
G75*
G02*
X142660400Y-96005001I0J249999D01*
G01*
X142660400Y-95379999D01*
G75*
G02*
X142910399Y-95130000I249999J0D01*
G01*
X144160401Y-95130000D01*
G75*
G02*
X144410400Y-95379999I0J-249999D01*
G01*
X144410400Y-96005001D01*
G75*
G02*
X144160401Y-96255000I-249999J0D01*
G01*
G37*
%TD*%
%TO.C,R4*%
G36*
G01*
X154949999Y-93000400D02*
X156200001Y-93000400D01*
G75*
G02*
X156450000Y-93250399I0J-249999D01*
G01*
X156450000Y-93875401D01*
G75*
G02*
X156200001Y-94125400I-249999J0D01*
G01*
X154949999Y-94125400D01*
G75*
G02*
X154700000Y-93875401I0J249999D01*
G01*
X154700000Y-93250399D01*
G75*
G02*
X154949999Y-93000400I249999J0D01*
G01*
G37*
G36*
G01*
X154949999Y-90075400D02*
X156200001Y-90075400D01*
G75*
G02*
X156450000Y-90325399I0J-249999D01*
G01*
X156450000Y-90950401D01*
G75*
G02*
X156200001Y-91200400I-249999J0D01*
G01*
X154949999Y-91200400D01*
G75*
G02*
X154700000Y-90950401I0J249999D01*
G01*
X154700000Y-90325399D01*
G75*
G02*
X154949999Y-90075400I249999J0D01*
G01*
G37*
%TD*%
%TO.C,R5*%
G36*
G01*
X156757800Y-97190399D02*
X156757800Y-98440401D01*
G75*
G02*
X156507801Y-98690400I-249999J0D01*
G01*
X155882799Y-98690400D01*
G75*
G02*
X155632800Y-98440401I0J249999D01*
G01*
X155632800Y-97190399D01*
G75*
G02*
X155882799Y-96940400I249999J0D01*
G01*
X156507801Y-96940400D01*
G75*
G02*
X156757800Y-97190399I0J-249999D01*
G01*
G37*
G36*
G01*
X159682800Y-97190399D02*
X159682800Y-98440401D01*
G75*
G02*
X159432801Y-98690400I-249999J0D01*
G01*
X158807799Y-98690400D01*
G75*
G02*
X158557800Y-98440401I0J249999D01*
G01*
X158557800Y-97190399D01*
G75*
G02*
X158807799Y-96940400I249999J0D01*
G01*
X159432801Y-96940400D01*
G75*
G02*
X159682800Y-97190399I0J-249999D01*
G01*
G37*
%TD*%
%TO.C,R6*%
G36*
G01*
X161426999Y-96958800D02*
X162677001Y-96958800D01*
G75*
G02*
X162927000Y-97208799I0J-249999D01*
G01*
X162927000Y-97833801D01*
G75*
G02*
X162677001Y-98083800I-249999J0D01*
G01*
X161426999Y-98083800D01*
G75*
G02*
X161177000Y-97833801I0J249999D01*
G01*
X161177000Y-97208799D01*
G75*
G02*
X161426999Y-96958800I249999J0D01*
G01*
G37*
G36*
G01*
X161426999Y-99883800D02*
X162677001Y-99883800D01*
G75*
G02*
X162927000Y-100133799I0J-249999D01*
G01*
X162927000Y-100758801D01*
G75*
G02*
X162677001Y-101008800I-249999J0D01*
G01*
X161426999Y-101008800D01*
G75*
G02*
X161177000Y-100758801I0J249999D01*
G01*
X161177000Y-100133799D01*
G75*
G02*
X161426999Y-99883800I249999J0D01*
G01*
G37*
%TD*%
%TO.C,R7*%
G36*
G01*
X165871999Y-99807600D02*
X167122001Y-99807600D01*
G75*
G02*
X167372000Y-100057599I0J-249999D01*
G01*
X167372000Y-100682601D01*
G75*
G02*
X167122001Y-100932600I-249999J0D01*
G01*
X165871999Y-100932600D01*
G75*
G02*
X165622000Y-100682601I0J249999D01*
G01*
X165622000Y-100057599D01*
G75*
G02*
X165871999Y-99807600I249999J0D01*
G01*
G37*
G36*
G01*
X165871999Y-96882600D02*
X167122001Y-96882600D01*
G75*
G02*
X167372000Y-97132599I0J-249999D01*
G01*
X167372000Y-97757601D01*
G75*
G02*
X167122001Y-98007600I-249999J0D01*
G01*
X165871999Y-98007600D01*
G75*
G02*
X165622000Y-97757601I0J249999D01*
G01*
X165622000Y-97132599D01*
G75*
G02*
X165871999Y-96882600I249999J0D01*
G01*
G37*
%TD*%
%TO.C,R9*%
G36*
G01*
X160466200Y-89468799D02*
X160466200Y-90718801D01*
G75*
G02*
X160216201Y-90968800I-249999J0D01*
G01*
X159591199Y-90968800D01*
G75*
G02*
X159341200Y-90718801I0J249999D01*
G01*
X159341200Y-89468799D01*
G75*
G02*
X159591199Y-89218800I249999J0D01*
G01*
X160216201Y-89218800D01*
G75*
G02*
X160466200Y-89468799I0J-249999D01*
G01*
G37*
G36*
G01*
X163391200Y-89468799D02*
X163391200Y-90718801D01*
G75*
G02*
X163141201Y-90968800I-249999J0D01*
G01*
X162516199Y-90968800D01*
G75*
G02*
X162266200Y-90718801I0J249999D01*
G01*
X162266200Y-89468799D01*
G75*
G02*
X162516199Y-89218800I249999J0D01*
G01*
X163141201Y-89218800D01*
G75*
G02*
X163391200Y-89468799I0J-249999D01*
G01*
G37*
%TD*%
%TO.C,LD1*%
G36*
G01*
X131511200Y-98598800D02*
X130261200Y-98598800D01*
G75*
G02*
X130011200Y-98348800I0J250000D01*
G01*
X130011200Y-97598800D01*
G75*
G02*
X130261200Y-97348800I250000J0D01*
G01*
X131511200Y-97348800D01*
G75*
G02*
X131761200Y-97598800I0J-250000D01*
G01*
X131761200Y-98348800D01*
G75*
G02*
X131511200Y-98598800I-250000J0D01*
G01*
G37*
G36*
G01*
X131511200Y-95798800D02*
X130261200Y-95798800D01*
G75*
G02*
X130011200Y-95548800I0J250000D01*
G01*
X130011200Y-94798800D01*
G75*
G02*
X130261200Y-94548800I250000J0D01*
G01*
X131511200Y-94548800D01*
G75*
G02*
X131761200Y-94798800I0J-250000D01*
G01*
X131761200Y-95548800D01*
G75*
G02*
X131511200Y-95798800I-250000J0D01*
G01*
G37*
%TD*%
%TO.C,R8*%
G36*
G01*
X138719399Y-102648400D02*
X139969401Y-102648400D01*
G75*
G02*
X140219400Y-102898399I0J-249999D01*
G01*
X140219400Y-103523401D01*
G75*
G02*
X139969401Y-103773400I-249999J0D01*
G01*
X138719399Y-103773400D01*
G75*
G02*
X138469400Y-103523401I0J249999D01*
G01*
X138469400Y-102898399D01*
G75*
G02*
X138719399Y-102648400I249999J0D01*
G01*
G37*
G36*
G01*
X138719399Y-105573400D02*
X139969401Y-105573400D01*
G75*
G02*
X140219400Y-105823399I0J-249999D01*
G01*
X140219400Y-106448401D01*
G75*
G02*
X139969401Y-106698400I-249999J0D01*
G01*
X138719399Y-106698400D01*
G75*
G02*
X138469400Y-106448401I0J249999D01*
G01*
X138469400Y-105823399D01*
G75*
G02*
X138719399Y-105573400I249999J0D01*
G01*
G37*
%TD*%
M02*
