%TF.GenerationSoftware,KiCad,Pcbnew,(5.1.9)-1*%
%TF.CreationDate,2021-06-29T18:38:44+03:00*%
%TF.ProjectId,driver,64726976-6572-42e6-9b69-6361645f7063,rev?*%
%TF.SameCoordinates,Original*%
%TF.FileFunction,Copper,L1,Top*%
%TF.FilePolarity,Positive*%
%FSLAX46Y46*%
G04 Gerber Fmt 4.6, Leading zero omitted, Abs format (unit mm)*
G04 Created by KiCad (PCBNEW (5.1.9)-1) date 2021-06-29 18:38:44*
%MOMM*%
%LPD*%
G01*
G04 APERTURE LIST*
%TA.AperFunction,ComponentPad*%
%ADD10R,1.700000X1.700000*%
%TD*%
%TA.AperFunction,ComponentPad*%
%ADD11O,1.700000X1.700000*%
%TD*%
%TA.AperFunction,SMDPad,CuDef*%
%ADD12R,1.220000X0.650000*%
%TD*%
%TA.AperFunction,SMDPad,CuDef*%
%ADD13R,0.700000X1.000000*%
%TD*%
%TA.AperFunction,Conductor*%
%ADD14C,0.250000*%
%TD*%
G04 APERTURE END LIST*
%TO.P,C1,1*%
%TO.N,Net-(C1-Pad1)*%
%TA.AperFunction,SMDPad,CuDef*%
G36*
G01*
X165796199Y-89313800D02*
X167096201Y-89313800D01*
G75*
G02*
X167346200Y-89563799I0J-249999D01*
G01*
X167346200Y-90213801D01*
G75*
G02*
X167096201Y-90463800I-249999J0D01*
G01*
X165796199Y-90463800D01*
G75*
G02*
X165546200Y-90213801I0J249999D01*
G01*
X165546200Y-89563799D01*
G75*
G02*
X165796199Y-89313800I249999J0D01*
G01*
G37*
%TD.AperFunction*%
%TO.P,C1,2*%
%TO.N,Net-(C1-Pad2)*%
%TA.AperFunction,SMDPad,CuDef*%
G36*
G01*
X165796199Y-92263800D02*
X167096201Y-92263800D01*
G75*
G02*
X167346200Y-92513799I0J-249999D01*
G01*
X167346200Y-93163801D01*
G75*
G02*
X167096201Y-93413800I-249999J0D01*
G01*
X165796199Y-93413800D01*
G75*
G02*
X165546200Y-93163801I0J249999D01*
G01*
X165546200Y-92513799D01*
G75*
G02*
X165796199Y-92263800I249999J0D01*
G01*
G37*
%TD.AperFunction*%
%TD*%
%TO.P,C2,1*%
%TO.N,Net-(C2-Pad1)*%
%TA.AperFunction,SMDPad,CuDef*%
G36*
G01*
X151240400Y-98632600D02*
X152340400Y-98632600D01*
G75*
G02*
X152590400Y-98882600I0J-250000D01*
G01*
X152590400Y-101157600D01*
G75*
G02*
X152340400Y-101407600I-250000J0D01*
G01*
X151240400Y-101407600D01*
G75*
G02*
X150990400Y-101157600I0J250000D01*
G01*
X150990400Y-98882600D01*
G75*
G02*
X151240400Y-98632600I250000J0D01*
G01*
G37*
%TD.AperFunction*%
%TO.P,C2,2*%
%TO.N,GND*%
%TA.AperFunction,SMDPad,CuDef*%
G36*
G01*
X151240400Y-102757600D02*
X152340400Y-102757600D01*
G75*
G02*
X152590400Y-103007600I0J-250000D01*
G01*
X152590400Y-105282600D01*
G75*
G02*
X152340400Y-105532600I-250000J0D01*
G01*
X151240400Y-105532600D01*
G75*
G02*
X150990400Y-105282600I0J250000D01*
G01*
X150990400Y-103007600D01*
G75*
G02*
X151240400Y-102757600I250000J0D01*
G01*
G37*
%TD.AperFunction*%
%TD*%
%TO.P,C3,2*%
%TO.N,GND*%
%TA.AperFunction,SMDPad,CuDef*%
G36*
G01*
X136076600Y-93283400D02*
X137176600Y-93283400D01*
G75*
G02*
X137426600Y-93533400I0J-250000D01*
G01*
X137426600Y-95808400D01*
G75*
G02*
X137176600Y-96058400I-250000J0D01*
G01*
X136076600Y-96058400D01*
G75*
G02*
X135826600Y-95808400I0J250000D01*
G01*
X135826600Y-93533400D01*
G75*
G02*
X136076600Y-93283400I250000J0D01*
G01*
G37*
%TD.AperFunction*%
%TO.P,C3,1*%
%TO.N,Net-(C3-Pad1)*%
%TA.AperFunction,SMDPad,CuDef*%
G36*
G01*
X136076600Y-89158400D02*
X137176600Y-89158400D01*
G75*
G02*
X137426600Y-89408400I0J-250000D01*
G01*
X137426600Y-91683400D01*
G75*
G02*
X137176600Y-91933400I-250000J0D01*
G01*
X136076600Y-91933400D01*
G75*
G02*
X135826600Y-91683400I0J250000D01*
G01*
X135826600Y-89408400D01*
G75*
G02*
X136076600Y-89158400I250000J0D01*
G01*
G37*
%TD.AperFunction*%
%TD*%
%TO.P,C4,2*%
%TO.N,GND*%
%TA.AperFunction,SMDPad,CuDef*%
G36*
G01*
X142936199Y-92187600D02*
X144236201Y-92187600D01*
G75*
G02*
X144486200Y-92437599I0J-249999D01*
G01*
X144486200Y-93087601D01*
G75*
G02*
X144236201Y-93337600I-249999J0D01*
G01*
X142936199Y-93337600D01*
G75*
G02*
X142686200Y-93087601I0J249999D01*
G01*
X142686200Y-92437599D01*
G75*
G02*
X142936199Y-92187600I249999J0D01*
G01*
G37*
%TD.AperFunction*%
%TO.P,C4,1*%
%TO.N,Net-(C3-Pad1)*%
%TA.AperFunction,SMDPad,CuDef*%
G36*
G01*
X142936199Y-89237600D02*
X144236201Y-89237600D01*
G75*
G02*
X144486200Y-89487599I0J-249999D01*
G01*
X144486200Y-90137601D01*
G75*
G02*
X144236201Y-90387600I-249999J0D01*
G01*
X142936199Y-90387600D01*
G75*
G02*
X142686200Y-90137601I0J249999D01*
G01*
X142686200Y-89487599D01*
G75*
G02*
X142936199Y-89237600I249999J0D01*
G01*
G37*
%TD.AperFunction*%
%TD*%
D10*
%TO.P,JLazer1,1*%
%TO.N,Net-(C1-Pad1)*%
X171526200Y-90093800D03*
D11*
%TO.P,JLazer1,2*%
%TO.N,PD*%
X171526200Y-92633800D03*
%TO.P,JLazer1,3*%
%TO.N,Net-(C1-Pad2)*%
X171526200Y-95173800D03*
%TD*%
D10*
%TO.P,JPower1,1*%
%TO.N,GND*%
X125806200Y-92633800D03*
D11*
%TO.P,JPower1,2*%
%TO.N,Net-(C3-Pad1)*%
X125806200Y-90093800D03*
%TD*%
D10*
%TO.P,JReg1,1*%
%TO.N,Net-(JReg1-Pad1)*%
X134340600Y-103454200D03*
D11*
%TO.P,JReg1,2*%
%TO.N,PD*%
X134340600Y-105994200D03*
%TD*%
%TO.P,JSynchro1,2*%
%TO.N,Net-(JSynchro1-Pad2)*%
X125679200Y-103403400D03*
D10*
%TO.P,JSynchro1,1*%
%TO.N,GND*%
X125679200Y-100863400D03*
%TD*%
D12*
%TO.P,Q1,1*%
%TO.N,Net-(Q1-Pad1)*%
X148092800Y-91760000D03*
%TO.P,Q1,2*%
%TO.N,GND*%
X148092800Y-92710000D03*
%TO.P,Q1,3*%
%TO.N,Net-(Q1-Pad3)*%
X148092800Y-93660000D03*
%TO.P,Q1,4*%
%TO.N,Net-(Q1-Pad1)*%
X150712800Y-93660000D03*
%TO.P,Q1,5*%
%TO.N,Net-(C3-Pad1)*%
X150712800Y-92710000D03*
%TO.P,Q1,6*%
%TO.N,Net-(C1-Pad1)*%
X150712800Y-91760000D03*
%TD*%
D13*
%TO.P,Q2,1*%
%TO.N,GND*%
X144388800Y-105567000D03*
%TO.P,Q2,2*%
%TO.N,PD*%
X145338800Y-105567000D03*
%TO.P,Q2,3*%
%TO.N,Net-(Q2-Pad3)*%
X146288800Y-105567000D03*
%TO.P,Q2,4*%
%TO.N,GND*%
X146288800Y-102967000D03*
%TO.P,Q2,6*%
%TO.N,Net-(C2-Pad1)*%
X144388800Y-102967000D03*
%TO.P,Q2,5*%
X145338800Y-102967000D03*
%TD*%
%TO.P,R1,1*%
%TO.N,Net-(C3-Pad1)*%
%TA.AperFunction,SMDPad,CuDef*%
G36*
G01*
X130261199Y-89146300D02*
X131511201Y-89146300D01*
G75*
G02*
X131761200Y-89396299I0J-249999D01*
G01*
X131761200Y-90021301D01*
G75*
G02*
X131511201Y-90271300I-249999J0D01*
G01*
X130261199Y-90271300D01*
G75*
G02*
X130011200Y-90021301I0J249999D01*
G01*
X130011200Y-89396299D01*
G75*
G02*
X130261199Y-89146300I249999J0D01*
G01*
G37*
%TD.AperFunction*%
%TO.P,R1,2*%
%TO.N,Net-(LD1-Pad2)*%
%TA.AperFunction,SMDPad,CuDef*%
G36*
G01*
X130261199Y-92071300D02*
X131511201Y-92071300D01*
G75*
G02*
X131761200Y-92321299I0J-249999D01*
G01*
X131761200Y-92946301D01*
G75*
G02*
X131511201Y-93196300I-249999J0D01*
G01*
X130261199Y-93196300D01*
G75*
G02*
X130011200Y-92946301I0J249999D01*
G01*
X130011200Y-92321299D01*
G75*
G02*
X130261199Y-92071300I249999J0D01*
G01*
G37*
%TD.AperFunction*%
%TD*%
%TO.P,R2,1*%
%TO.N,Net-(Q1-Pad3)*%
%TA.AperFunction,SMDPad,CuDef*%
G36*
G01*
X140404200Y-97749199D02*
X140404200Y-98999201D01*
G75*
G02*
X140154201Y-99249200I-249999J0D01*
G01*
X139529199Y-99249200D01*
G75*
G02*
X139279200Y-98999201I0J249999D01*
G01*
X139279200Y-97749199D01*
G75*
G02*
X139529199Y-97499200I249999J0D01*
G01*
X140154201Y-97499200D01*
G75*
G02*
X140404200Y-97749199I0J-249999D01*
G01*
G37*
%TD.AperFunction*%
%TO.P,R2,2*%
%TO.N,Net-(JSynchro1-Pad2)*%
%TA.AperFunction,SMDPad,CuDef*%
G36*
G01*
X137479200Y-97749199D02*
X137479200Y-98999201D01*
G75*
G02*
X137229201Y-99249200I-249999J0D01*
G01*
X136604199Y-99249200D01*
G75*
G02*
X136354200Y-98999201I0J249999D01*
G01*
X136354200Y-97749199D01*
G75*
G02*
X136604199Y-97499200I249999J0D01*
G01*
X137229201Y-97499200D01*
G75*
G02*
X137479200Y-97749199I0J-249999D01*
G01*
G37*
%TD.AperFunction*%
%TD*%
%TO.P,R3,1*%
%TO.N,Net-(Q1-Pad3)*%
%TA.AperFunction,SMDPad,CuDef*%
G36*
G01*
X144160401Y-99180000D02*
X142910399Y-99180000D01*
G75*
G02*
X142660400Y-98930001I0J249999D01*
G01*
X142660400Y-98304999D01*
G75*
G02*
X142910399Y-98055000I249999J0D01*
G01*
X144160401Y-98055000D01*
G75*
G02*
X144410400Y-98304999I0J-249999D01*
G01*
X144410400Y-98930001D01*
G75*
G02*
X144160401Y-99180000I-249999J0D01*
G01*
G37*
%TD.AperFunction*%
%TO.P,R3,2*%
%TO.N,GND*%
%TA.AperFunction,SMDPad,CuDef*%
G36*
G01*
X144160401Y-96255000D02*
X142910399Y-96255000D01*
G75*
G02*
X142660400Y-96005001I0J249999D01*
G01*
X142660400Y-95379999D01*
G75*
G02*
X142910399Y-95130000I249999J0D01*
G01*
X144160401Y-95130000D01*
G75*
G02*
X144410400Y-95379999I0J-249999D01*
G01*
X144410400Y-96005001D01*
G75*
G02*
X144160401Y-96255000I-249999J0D01*
G01*
G37*
%TD.AperFunction*%
%TD*%
%TO.P,R4,2*%
%TO.N,Net-(Q1-Pad1)*%
%TA.AperFunction,SMDPad,CuDef*%
G36*
G01*
X154949999Y-93000400D02*
X156200001Y-93000400D01*
G75*
G02*
X156450000Y-93250399I0J-249999D01*
G01*
X156450000Y-93875401D01*
G75*
G02*
X156200001Y-94125400I-249999J0D01*
G01*
X154949999Y-94125400D01*
G75*
G02*
X154700000Y-93875401I0J249999D01*
G01*
X154700000Y-93250399D01*
G75*
G02*
X154949999Y-93000400I249999J0D01*
G01*
G37*
%TD.AperFunction*%
%TO.P,R4,1*%
%TO.N,Net-(C3-Pad1)*%
%TA.AperFunction,SMDPad,CuDef*%
G36*
G01*
X154949999Y-90075400D02*
X156200001Y-90075400D01*
G75*
G02*
X156450000Y-90325399I0J-249999D01*
G01*
X156450000Y-90950401D01*
G75*
G02*
X156200001Y-91200400I-249999J0D01*
G01*
X154949999Y-91200400D01*
G75*
G02*
X154700000Y-90950401I0J249999D01*
G01*
X154700000Y-90325399D01*
G75*
G02*
X154949999Y-90075400I249999J0D01*
G01*
G37*
%TD.AperFunction*%
%TD*%
%TO.P,R5,2*%
%TO.N,Net-(C2-Pad1)*%
%TA.AperFunction,SMDPad,CuDef*%
G36*
G01*
X156757800Y-97190399D02*
X156757800Y-98440401D01*
G75*
G02*
X156507801Y-98690400I-249999J0D01*
G01*
X155882799Y-98690400D01*
G75*
G02*
X155632800Y-98440401I0J249999D01*
G01*
X155632800Y-97190399D01*
G75*
G02*
X155882799Y-96940400I249999J0D01*
G01*
X156507801Y-96940400D01*
G75*
G02*
X156757800Y-97190399I0J-249999D01*
G01*
G37*
%TD.AperFunction*%
%TO.P,R5,1*%
%TO.N,Net-(C1-Pad1)*%
%TA.AperFunction,SMDPad,CuDef*%
G36*
G01*
X159682800Y-97190399D02*
X159682800Y-98440401D01*
G75*
G02*
X159432801Y-98690400I-249999J0D01*
G01*
X158807799Y-98690400D01*
G75*
G02*
X158557800Y-98440401I0J249999D01*
G01*
X158557800Y-97190399D01*
G75*
G02*
X158807799Y-96940400I249999J0D01*
G01*
X159432801Y-96940400D01*
G75*
G02*
X159682800Y-97190399I0J-249999D01*
G01*
G37*
%TD.AperFunction*%
%TD*%
%TO.P,R6,1*%
%TO.N,Net-(C1-Pad1)*%
%TA.AperFunction,SMDPad,CuDef*%
G36*
G01*
X161426999Y-96958800D02*
X162677001Y-96958800D01*
G75*
G02*
X162927000Y-97208799I0J-249999D01*
G01*
X162927000Y-97833801D01*
G75*
G02*
X162677001Y-98083800I-249999J0D01*
G01*
X161426999Y-98083800D01*
G75*
G02*
X161177000Y-97833801I0J249999D01*
G01*
X161177000Y-97208799D01*
G75*
G02*
X161426999Y-96958800I249999J0D01*
G01*
G37*
%TD.AperFunction*%
%TO.P,R6,2*%
%TO.N,Net-(Q2-Pad3)*%
%TA.AperFunction,SMDPad,CuDef*%
G36*
G01*
X161426999Y-99883800D02*
X162677001Y-99883800D01*
G75*
G02*
X162927000Y-100133799I0J-249999D01*
G01*
X162927000Y-100758801D01*
G75*
G02*
X162677001Y-101008800I-249999J0D01*
G01*
X161426999Y-101008800D01*
G75*
G02*
X161177000Y-100758801I0J249999D01*
G01*
X161177000Y-100133799D01*
G75*
G02*
X161426999Y-99883800I249999J0D01*
G01*
G37*
%TD.AperFunction*%
%TD*%
%TO.P,R7,2*%
%TO.N,Net-(Q2-Pad3)*%
%TA.AperFunction,SMDPad,CuDef*%
G36*
G01*
X165871999Y-99807600D02*
X167122001Y-99807600D01*
G75*
G02*
X167372000Y-100057599I0J-249999D01*
G01*
X167372000Y-100682601D01*
G75*
G02*
X167122001Y-100932600I-249999J0D01*
G01*
X165871999Y-100932600D01*
G75*
G02*
X165622000Y-100682601I0J249999D01*
G01*
X165622000Y-100057599D01*
G75*
G02*
X165871999Y-99807600I249999J0D01*
G01*
G37*
%TD.AperFunction*%
%TO.P,R7,1*%
%TO.N,Net-(C1-Pad2)*%
%TA.AperFunction,SMDPad,CuDef*%
G36*
G01*
X165871999Y-96882600D02*
X167122001Y-96882600D01*
G75*
G02*
X167372000Y-97132599I0J-249999D01*
G01*
X167372000Y-97757601D01*
G75*
G02*
X167122001Y-98007600I-249999J0D01*
G01*
X165871999Y-98007600D01*
G75*
G02*
X165622000Y-97757601I0J249999D01*
G01*
X165622000Y-97132599D01*
G75*
G02*
X165871999Y-96882600I249999J0D01*
G01*
G37*
%TD.AperFunction*%
%TD*%
%TO.P,R9,2*%
%TO.N,Net-(C1-Pad1)*%
%TA.AperFunction,SMDPad,CuDef*%
G36*
G01*
X160466200Y-89468799D02*
X160466200Y-90718801D01*
G75*
G02*
X160216201Y-90968800I-249999J0D01*
G01*
X159591199Y-90968800D01*
G75*
G02*
X159341200Y-90718801I0J249999D01*
G01*
X159341200Y-89468799D01*
G75*
G02*
X159591199Y-89218800I249999J0D01*
G01*
X160216201Y-89218800D01*
G75*
G02*
X160466200Y-89468799I0J-249999D01*
G01*
G37*
%TD.AperFunction*%
%TO.P,R9,1*%
%TA.AperFunction,SMDPad,CuDef*%
G36*
G01*
X163391200Y-89468799D02*
X163391200Y-90718801D01*
G75*
G02*
X163141201Y-90968800I-249999J0D01*
G01*
X162516199Y-90968800D01*
G75*
G02*
X162266200Y-90718801I0J249999D01*
G01*
X162266200Y-89468799D01*
G75*
G02*
X162516199Y-89218800I249999J0D01*
G01*
X163141201Y-89218800D01*
G75*
G02*
X163391200Y-89468799I0J-249999D01*
G01*
G37*
%TD.AperFunction*%
%TD*%
%TO.P,LD1,1*%
%TO.N,GND*%
%TA.AperFunction,SMDPad,CuDef*%
G36*
G01*
X131511200Y-98598800D02*
X130261200Y-98598800D01*
G75*
G02*
X130011200Y-98348800I0J250000D01*
G01*
X130011200Y-97598800D01*
G75*
G02*
X130261200Y-97348800I250000J0D01*
G01*
X131511200Y-97348800D01*
G75*
G02*
X131761200Y-97598800I0J-250000D01*
G01*
X131761200Y-98348800D01*
G75*
G02*
X131511200Y-98598800I-250000J0D01*
G01*
G37*
%TD.AperFunction*%
%TO.P,LD1,2*%
%TO.N,Net-(LD1-Pad2)*%
%TA.AperFunction,SMDPad,CuDef*%
G36*
G01*
X131511200Y-95798800D02*
X130261200Y-95798800D01*
G75*
G02*
X130011200Y-95548800I0J250000D01*
G01*
X130011200Y-94798800D01*
G75*
G02*
X130261200Y-94548800I250000J0D01*
G01*
X131511200Y-94548800D01*
G75*
G02*
X131761200Y-94798800I0J-250000D01*
G01*
X131761200Y-95548800D01*
G75*
G02*
X131511200Y-95798800I-250000J0D01*
G01*
G37*
%TD.AperFunction*%
%TD*%
%TO.P,R8,1*%
%TO.N,Net-(JReg1-Pad1)*%
%TA.AperFunction,SMDPad,CuDef*%
G36*
G01*
X138719399Y-102648400D02*
X139969401Y-102648400D01*
G75*
G02*
X140219400Y-102898399I0J-249999D01*
G01*
X140219400Y-103523401D01*
G75*
G02*
X139969401Y-103773400I-249999J0D01*
G01*
X138719399Y-103773400D01*
G75*
G02*
X138469400Y-103523401I0J249999D01*
G01*
X138469400Y-102898399D01*
G75*
G02*
X138719399Y-102648400I249999J0D01*
G01*
G37*
%TD.AperFunction*%
%TO.P,R8,2*%
%TO.N,GND*%
%TA.AperFunction,SMDPad,CuDef*%
G36*
G01*
X138719399Y-105573400D02*
X139969401Y-105573400D01*
G75*
G02*
X140219400Y-105823399I0J-249999D01*
G01*
X140219400Y-106448401D01*
G75*
G02*
X139969401Y-106698400I-249999J0D01*
G01*
X138719399Y-106698400D01*
G75*
G02*
X138469400Y-106448401I0J249999D01*
G01*
X138469400Y-105823399D01*
G75*
G02*
X138719399Y-105573400I249999J0D01*
G01*
G37*
%TD.AperFunction*%
%TD*%
D14*
%TO.N,Net-(C1-Pad1)*%
X166241200Y-90093800D02*
X166446200Y-89888800D01*
X162828700Y-90093800D02*
X166241200Y-90093800D01*
X171321200Y-89888800D02*
X171526200Y-90093800D01*
X166446200Y-89888800D02*
X171321200Y-89888800D01*
X161757900Y-97815400D02*
X162052000Y-97521300D01*
X159120300Y-97815400D02*
X161757900Y-97815400D01*
X162052000Y-97521300D02*
X162052000Y-96037400D01*
X162828700Y-95260700D02*
X162828700Y-90093800D01*
X162052000Y-96037400D02*
X162828700Y-95260700D01*
X159903700Y-88986900D02*
X159903700Y-90093800D01*
X158165800Y-87249000D02*
X159903700Y-88986900D01*
X152273000Y-87249000D02*
X158165800Y-87249000D01*
X150712800Y-88809200D02*
X152273000Y-87249000D01*
X150712800Y-91760000D02*
X150712800Y-88809200D01*
%TO.N,Net-(C1-Pad2)*%
X166497000Y-92889600D02*
X166446200Y-92838800D01*
X166497000Y-97445100D02*
X166497000Y-92889600D01*
X166598600Y-95173800D02*
X171526200Y-95173800D01*
X166446200Y-95021400D02*
X166598600Y-95173800D01*
X166446200Y-92838800D02*
X166446200Y-95021400D01*
%TO.N,Net-(C2-Pad1)*%
X144388800Y-102967000D02*
X145338800Y-102967000D01*
X144388800Y-102967000D02*
X144911600Y-102967000D01*
X147299700Y-100020100D02*
X151790400Y-100020100D01*
X145338800Y-101981000D02*
X147299700Y-100020100D01*
X145338800Y-102967000D02*
X145338800Y-101981000D01*
X156017500Y-97637600D02*
X156195300Y-97815400D01*
X152374600Y-97637600D02*
X156017500Y-97637600D01*
X151638000Y-98374200D02*
X152374600Y-97637600D01*
X151638000Y-98927900D02*
X151638000Y-98374200D01*
X151155400Y-99410500D02*
X151638000Y-98927900D01*
%TO.N,Net-(C3-Pad1)*%
X125806200Y-90093800D02*
X127355600Y-90093800D01*
X127740600Y-89708800D02*
X130886200Y-89708800D01*
X127355600Y-90093800D02*
X127740600Y-89708800D01*
X150712800Y-92710000D02*
X152196800Y-92710000D01*
X154268900Y-90637900D02*
X154990800Y-90637900D01*
X152196800Y-92710000D02*
X154268900Y-90637900D01*
X137283700Y-89888800D02*
X143586200Y-89888800D01*
X137236200Y-89936300D02*
X137283700Y-89888800D01*
X137236200Y-90571300D02*
X137236200Y-89936300D01*
X136373700Y-89708800D02*
X137236200Y-90571300D01*
X130886200Y-89708800D02*
X136373700Y-89708800D01*
%TO.N,Net-(JReg1-Pad1)*%
X135168100Y-102626700D02*
X134340600Y-103454200D01*
X138760200Y-102626700D02*
X135168100Y-102626700D01*
X139344400Y-103210900D02*
X138760200Y-102626700D01*
%TO.N,Net-(JSynchro1-Pad2)*%
X136851200Y-98983800D02*
X133426200Y-98983800D01*
X128828800Y-103403400D02*
X133248400Y-98983800D01*
X133248400Y-98983800D02*
X136851200Y-98983800D01*
X125679200Y-103403400D02*
X128828800Y-103403400D01*
%TO.N,Net-(LD1-Pad2)*%
X130886200Y-92633800D02*
X130886200Y-95173800D01*
%TO.N,Net-(Q1-Pad1)*%
X154893700Y-93660000D02*
X154990800Y-93562900D01*
X150712800Y-93660000D02*
X154893700Y-93660000D01*
X148092800Y-89016200D02*
X148092800Y-91760000D01*
X150876000Y-86233000D02*
X148092800Y-89016200D01*
X161391600Y-87858600D02*
X159766000Y-86233000D01*
X161391600Y-91897200D02*
X161391600Y-87858600D01*
X159766000Y-86233000D02*
X150876000Y-86233000D01*
X159725900Y-93562900D02*
X161391600Y-91897200D01*
X154990800Y-93562900D02*
X159725900Y-93562900D01*
%TO.N,Net-(Q1-Pad3)*%
X143499300Y-98653600D02*
X143535400Y-98617500D01*
X140106400Y-98653600D02*
X143499300Y-98653600D01*
X139776200Y-98983800D02*
X140106400Y-98653600D01*
X143535400Y-98617500D02*
X144612900Y-98617500D01*
X148092800Y-95137600D02*
X148092800Y-93660000D01*
X144612900Y-98617500D02*
X148092800Y-95137600D01*
%TO.N,Net-(Q2-Pad3)*%
X161558700Y-100253800D02*
X161366200Y-100446300D01*
X158673800Y-106908600D02*
X147630400Y-106908600D01*
X147630400Y-106908600D02*
X146288800Y-105567000D01*
X161366200Y-104216200D02*
X158673800Y-106908600D01*
X161366200Y-100446300D02*
X161366200Y-104216200D01*
X162128200Y-100370100D02*
X162052000Y-100446300D01*
X166497000Y-100370100D02*
X162128200Y-100370100D01*
%TO.N,GND*%
X125806200Y-92633800D02*
X125806200Y-97104200D01*
X126675800Y-97973800D02*
X130886200Y-97973800D01*
X125806200Y-97104200D02*
X126675800Y-97973800D01*
X137236200Y-94696300D02*
X142006300Y-94696300D01*
X125679200Y-92760800D02*
X125806200Y-92633800D01*
X125679200Y-100863400D02*
X125679200Y-92760800D01*
X142006300Y-94696300D02*
X143586200Y-94696300D01*
X143586200Y-92838800D02*
X143586200Y-94696300D01*
X125679200Y-100863400D02*
X123317000Y-100863400D01*
X123317000Y-100863400D02*
X122453400Y-101727000D01*
X122453400Y-101727000D02*
X122453400Y-105181400D01*
X122453400Y-105181400D02*
X123545600Y-106273600D01*
X123545600Y-106273600D02*
X127660400Y-106273600D01*
X127660400Y-106273600D02*
X132880100Y-101053900D01*
X144373500Y-105551700D02*
X144388800Y-105567000D01*
X139344400Y-106135900D02*
X139928600Y-105551700D01*
X141945900Y-101204300D02*
X141795500Y-101053900D01*
X132880100Y-101053900D02*
X141795500Y-101053900D01*
X139928600Y-105551700D02*
X141945900Y-105551700D01*
X141945900Y-105551700D02*
X141945900Y-101204300D01*
X141945900Y-105551700D02*
X144373500Y-105551700D01*
X136850100Y-94696300D02*
X137236200Y-94696300D01*
X133934200Y-97612200D02*
X136850100Y-94696300D01*
X131247800Y-97612200D02*
X133934200Y-97612200D01*
X130886200Y-97973800D02*
X131247800Y-97612200D01*
X151155400Y-103535500D02*
X148391900Y-103535500D01*
X147823400Y-102967000D02*
X146288800Y-102967000D01*
X148391900Y-103535500D02*
X147823400Y-102967000D01*
X157708600Y-96012000D02*
X157708600Y-101625400D01*
X157048200Y-95300800D02*
X157734000Y-95986600D01*
X155188900Y-104145100D02*
X151790400Y-104145100D01*
X150164800Y-95300800D02*
X157048200Y-95300800D01*
X144411700Y-101053900D02*
X150139400Y-95326200D01*
X157708600Y-101625400D02*
X155188900Y-104145100D01*
X141795500Y-101053900D02*
X144411700Y-101053900D01*
X143715000Y-92710000D02*
X143586200Y-92838800D01*
X148092800Y-92710000D02*
X143715000Y-92710000D01*
X143586200Y-95641700D02*
X143535400Y-95692500D01*
X143586200Y-94696300D02*
X143586200Y-95641700D01*
%TO.N,PD*%
X145338800Y-107924600D02*
X145237200Y-108026200D01*
X145338800Y-105567000D02*
X145338800Y-107924600D01*
X173329600Y-92633800D02*
X171526200Y-92633800D01*
X174117000Y-93421200D02*
X173329600Y-92633800D01*
X174117000Y-101269800D02*
X174117000Y-93421200D01*
X167360600Y-108026200D02*
X174117000Y-101269800D01*
X145237200Y-108026200D02*
X167360600Y-108026200D01*
X136220200Y-108026200D02*
X140766800Y-108026200D01*
X134340600Y-106146600D02*
X136220200Y-108026200D01*
X140766800Y-108026200D02*
X145237200Y-108026200D01*
X134340600Y-105994200D02*
X134340600Y-106146600D01*
%TD*%
M02*
